<?xml version="1.0" encoding="UTF-8"?>
<svg id="Layer_2" data-name="Layer 2" xmlns="http://www.w3.org/2000/svg" xmlns:xlink="http://www.w3.org/1999/xlink" viewBox="0 0 972.61 904.57">
  <defs>
    <style>
      .cls-1 {
        fill: #fff;
      }

      .cls-2 {
        clip-path: url(#clippath-1);
      }

      .cls-3 {
        clip-path: url(#clippath);
      }

      .cls-4 {
        fill: none;
      }
    </style>
    <clipPath id="clippath">
      <rect class="cls-4" x="62.09" y="16.03" width="887.68" height="831.42"/>
    </clipPath>
    <clipPath id="clippath-1">
      <rect class="cls-4" x="62.09" y="16.03" width="887.68" height="831.42"/>
    </clipPath>
  </defs>
  <g class="cls-3">
    <path class="cls-1" d="m674.75,522.39h64.43c4.99-13.47,9.1-27.37,12.16-41.68h-61.08c-3.9,14.48-9.14,28.4-15.51,41.68m-16.48-239.63h68.39c-49.55-100-152.61-168.78-271.77-168.78-167.45,0-303.19,135.74-303.19,303.19s135.74,303.19,303.19,303.19c114.98,0,214.93-64.04,266.31-158.36h-70.26c-44.39,60.04-115.65,98.98-196.06,98.98-134.64,0-243.8-109.15-243.8-243.8s109.15-243.8,243.8-243.8c84.96,0,159.74,43.49,203.39,109.4"/>
  </g>
  <polyline class="cls-1" points="587.19 480.71 810.16 480.71 810.16 522.39 541.35 522.39 541.35 417.16 454.88 503.63 368.4 417.16 368.4 522.39 201.7 522.39 201.7 480.71 322.56 480.71 322.56 309.84 453.83 441.12 587.19 307.76 587.19 478.63"/>
  <g class="cls-2">
    <path class="cls-1" d="m188.16,93.13c0,27.04-21.93,48.97-48.97,48.97s-48.97-21.93-48.97-48.97,21.93-48.97,48.97-48.97,48.97,21.93,48.97,48.97m27.09,0c0-42-34.05-76.06-76.06-76.06S63.13,51.13,63.13,93.13s34.05,76.06,76.06,76.06,76.06-34.05,76.06-76.06"/>
    <path class="cls-4" d="m188.16,93.13c0,27.04-21.93,48.97-48.97,48.97s-48.97-21.93-48.97-48.97,21.93-48.97,48.97-48.97,48.97,21.93,48.97,48.97Zm27.09,0c0-42-34.05-76.06-76.06-76.06S63.13,51.13,63.13,93.13s34.05,76.06,76.06,76.06,76.06-34.05,76.06-76.06Z"/>
    <path class="cls-1" d="m921.64,497.16c0,27.04-21.93,48.97-48.97,48.97s-48.97-21.93-48.97-48.97,21.93-48.97,48.97-48.97,48.97,21.93,48.97,48.97m27.09,0c0-42-34.05-76.06-76.06-76.06s-76.06,34.05-76.06,76.06,34.05,76.06,76.06,76.06,76.06-34.05,76.06-76.06"/>
    <path class="cls-4" d="m921.64,497.16c0,27.04-21.93,48.97-48.97,48.97s-48.97-21.93-48.97-48.97,21.93-48.97,48.97-48.97,48.97,21.93,48.97,48.97Zm27.09,0c0-42-34.05-76.06-76.06-76.06s-76.06,34.05-76.06,76.06,34.05,76.06,76.06,76.06,76.06-34.05,76.06-76.06Z"/>
    <path class="cls-1" d="m228.2,759.93c0,30.75-24.93,55.68-55.68,55.68s-55.68-24.93-55.68-55.68,24.93-55.68,55.68-55.68,55.68,24.93,55.68,55.68m30.8,0c0-47.76-38.72-86.48-86.48-86.48s-86.48,38.72-86.48,86.48,38.72,86.48,86.48,86.48,86.48-38.72,86.48-86.48"/>
    <path class="cls-4" d="m228.2,759.93c0,30.75-24.93,55.68-55.68,55.68s-55.68-24.93-55.68-55.68,24.93-55.68,55.68-55.68,55.68,24.93,55.68,55.68Zm30.8,0c0-47.76-38.72-86.48-86.48-86.48s-86.48,38.72-86.48,86.48,38.72,86.48,86.48,86.48,86.48-38.72,86.48-86.48Z"/>
  </g>
  <rect class="cls-1" x="209.17" y="642.35" width="106.09" height="43.65" transform="translate(-392.84 379.95) rotate(-45)"/>
  <rect class="cls-1" x="201.99" y="127.32" width="37.5" height="106.09" transform="translate(-62.88 208.91) rotate(-45)"/>
  <rect class="cls-4" x="644.5" y="481.75" width="129.01" height="39.59"/>
</svg>